<svg id="圖層_1" data-name="圖層 1" xmlns="http://www.w3.org/2000/svg" viewBox="0 0 179.02 140.62"><defs><style>.cls-1{fill:#bec2d3;fill-rule:evenodd;}</style></defs><title>device-camera-01</title><path class="cls-1" d="M164.24,55.59H203.7a10.91,10.91,0,0,1,7.72,3.2h0a11,11,0,0,1,3.19,7.72v106a11,11,0,0,1-3.19,7.72h0a10.91,10.91,0,0,1-7.72,3.2H46.51a10.91,10.91,0,0,1-7.72-3.2h0a10.91,10.91,0,0,1-3.2-7.72v-106a10.91,10.91,0,0,1,3.2-7.72h0a10.91,10.91,0,0,1,7.72-3.2H86a10.93,10.93,0,0,0,7.73-3.2l6.16-6.17a11,11,0,0,1,3.56-2.38l.51-.21a11,11,0,0,1,4.17-.82h34a11,11,0,0,1,4.16.82l.51.21a10.86,10.86,0,0,1,3.56,2.38l6.17,6.17A10.88,10.88,0,0,0,164.24,55.59ZM59.3,170.68H190.91a10.92,10.92,0,0,0,10.92-10.92V79.3a10.92,10.92,0,0,0-10.92-10.92H159.23a11,11,0,0,1-4.16-.82l-.51-.21A10.88,10.88,0,0,1,151,65l-6.16-6.18a11,11,0,0,0-7.73-3.2h-24a11,11,0,0,0-7.72,3.2L99.21,65a10.9,10.9,0,0,1-3.57,2.38l-.5.21a11,11,0,0,1-4.17.82H59.3A10.92,10.92,0,0,0,48.38,79.33h0v80.46A10.92,10.92,0,0,0,59.3,170.68Zm8.26-89.51a6.41,6.41,0,0,0-5.36,9.92,6.48,6.48,0,0,0,.81,1,6.28,6.28,0,0,0,3.27,1.75,6.39,6.39,0,1,0,2.46-12.54,6.13,6.13,0,0,0-1.21-.12ZM125.1,94a25.57,25.57,0,1,1-18.1,7.45A25.57,25.57,0,0,1,125.1,94Zm0-12.79a38.36,38.36,0,1,0,27.13,11.23A38.36,38.36,0,0,0,125.1,81.21Z" transform="translate(-35.59 -42.81)"/></svg>