<svg id="圖層_1" data-name="圖層 1" xmlns="http://www.w3.org/2000/svg" viewBox="0 0 364.92 286.72"><defs><style>.cls-1{fill:#bec2d3;fill-rule:evenodd;opacity:0.58;}</style></defs><title>device-camera</title><path class="cls-1" d="M790.24,639.5h80.43A22.24,22.24,0,0,1,886.4,646h0a22.25,22.25,0,0,1,6.52,15.74V877.91a22.21,22.21,0,0,1-6.52,15.73h0a22.25,22.25,0,0,1-15.73,6.52H550.25a22.25,22.25,0,0,1-15.73-6.52h0A22.21,22.21,0,0,1,528,877.91V661.75A22.25,22.25,0,0,1,534.52,646h0a22.24,22.24,0,0,1,15.73-6.51h80.43A22.26,22.26,0,0,0,646.42,633L659,620.39a22.24,22.24,0,0,1,7.26-4.85l1-.43a22.23,22.23,0,0,1,8.48-1.68h69.38a22.23,22.23,0,0,1,8.48,1.68l1,.43a22.14,22.14,0,0,1,7.26,4.85L774.5,633A22.26,22.26,0,0,0,790.24,639.5ZM576.31,874.09h268.3a22.25,22.25,0,0,0,22.25-22.25v-164a22.26,22.26,0,0,0-22.25-22.25H780a22.23,22.23,0,0,1-8.48-1.68l-1-.42a22.35,22.35,0,0,1-7.26-4.85L750.68,646a22.26,22.26,0,0,0-15.74-6.52H686A22.28,22.28,0,0,0,670.24,646l-12.57,12.59a22.35,22.35,0,0,1-7.26,4.85l-1,.42a22.23,22.23,0,0,1-8.48,1.68H576.31a22.26,22.26,0,0,0-22.25,22.25v164A22.25,22.25,0,0,0,576.31,874.09Zm16.85-182.46a13,13,0,1,0,9.22,3.82A13,13,0,0,0,593.16,691.63Zm117.3,26.07A52.14,52.14,0,1,1,673.6,733,52.1,52.1,0,0,1,710.46,717.7Zm0-26.07a78.2,78.2,0,1,0,55.29,22.9A78.2,78.2,0,0,0,710.46,691.63Z" transform="translate(-528 -613.43)"/></svg>