<svg id="圖層_1" data-name="圖層 1" xmlns="http://www.w3.org/2000/svg" viewBox="0 0 16 16"><defs><style>.cls-1,.cls-2{fill:#2b66eb;}.cls-1{fill-rule:evenodd;}</style></defs><title>file</title><path class="cls-1" d="M13.85,4.44l-3.28-3.3L10.22,1H2.5L2,1.5v13l.5.5h11l.5-.5V4.8ZM10,2.63a.26.26,0,0,1,.45-.18l2.1,2.1a.26.26,0,0,1-.18.45H10.26A.26.26,0,0,1,10,4.74Zm3,11.11a.26.26,0,0,1-.26.26H3.26A.26.26,0,0,1,3,13.74V2.26A.26.26,0,0,1,3.26,2H8.74A.26.26,0,0,1,9,2.26V5.5l.5.5h3.24a.26.26,0,0,1,.26.26Z"/><rect class="cls-2" x="5" y="7" width="6" height="1"/><rect class="cls-2" x="5" y="9" width="6" height="1"/><rect class="cls-2" x="5" y="11" width="6" height="1"/></svg>