<?xml version="1.0" encoding="utf-8"?>
<!-- Generator: Adobe Illustrator 24.0.0, SVG Export Plug-In . SVG Version: 6.00 Build 0)  -->
<svg version="1.1" id="圖層_1" xmlns="http://www.w3.org/2000/svg" xmlns:xlink="http://www.w3.org/1999/xlink" x="0px" y="0px"
	 viewBox="0 0 16 16" style="enable-background:new 0 0 16 16;" xml:space="preserve">
<style type="text/css">
	.st0{fill-rule:evenodd;clip-rule:evenodd;fill:#919095;}
</style>
<path class="st0" d="M13.8,4.4l-3.3-3.3L10.2,1H2.5L2,1.5v13L2.5,15h11l0.5-0.5V4.8L13.8,4.4z M10,2.6c0-0.2,0.3-0.4,0.4-0.2
	l2.1,2.1c0.2,0.2,0,0.4-0.2,0.4h-2.1C10.1,5,10,4.9,10,4.7V2.6z M13,13.7c0,0.1-0.1,0.3-0.3,0.3H3.3C3.1,14,3,13.9,3,13.7V2.3
	C3,2.1,3.1,2,3.3,2h5.5C8.9,2,9,2.1,9,2.3v3.2L9.5,6h3.2C12.9,6,13,6.1,13,6.3V13.7z"/>
<rect x="5" y="7" class="st0" width="6" height="1"/>
<rect x="5" y="9" class="st0" width="6" height="1"/>
<rect x="5" y="11" class="st0" width="6" height="1"/>
</svg>
