<svg id="圖層_1" data-name="圖層 1" xmlns="http://www.w3.org/2000/svg" viewBox="0 0 67.08 159"><defs><style>.cls-1{fill:#9d9da7;}</style></defs><title>icon _youtube logo_</title><path class="cls-1" d="M65.62,47.21a9.62,9.62,0,0,0-8.06-7.7,221.8,221.8,0,0,0-48.05,0,9.58,9.58,0,0,0-8,7.7,125.91,125.91,0,0,0,0,38.27,9.61,9.61,0,0,0,8,7.73,221.14,221.14,0,0,0,24,1.3,221.14,221.14,0,0,0,24-1.3h0a9.62,9.62,0,0,0,8-7.71A125.72,125.72,0,0,0,65.62,47.21Zm-4.94,37.5A4.71,4.71,0,0,1,57,88.21a216.56,216.56,0,0,1-46.93,0,4.71,4.71,0,0,1-3.68-3.5A120.88,120.88,0,0,1,6.39,48a4.73,4.73,0,0,1,3.66-3.52,216.75,216.75,0,0,1,47,0A4.73,4.73,0,0,1,60.68,48,120.94,120.94,0,0,1,60.68,84.71ZM44.93,64.27l-15-10a2.51,2.51,0,0,0-1.27-.41,2.37,2.37,0,0,0-1.3.29A2.54,2.54,0,0,0,26,56.35v20a2.53,2.53,0,0,0,1.32,2.2,2.47,2.47,0,0,0,1.3.3,2.53,2.53,0,0,0,1.27-.42l15-10a2.5,2.5,0,0,0,.81-.9,2.58,2.58,0,0,0-.77-3.26ZM31,70.52V62.21a.62.62,0,0,1,.6-.64.64.64,0,0,1,.4.13l6.25,4.16a.64.64,0,0,1,.12.89l-.12.11L32,71a.62.62,0,0,1-1-.51Z"/></svg>