<svg id="圖層_1" data-name="圖層 1" xmlns="http://www.w3.org/2000/svg" viewBox="0 0 68 52"><defs><style>.cls-1{fill:#fff;}</style></defs><title>icon _envelope simple_</title><path class="cls-1" d="M67.06,1.7v0A2,2,0,0,0,67,1.33v0A1.77,1.77,0,0,0,66.81,1l0,0L66.58.66l0,0h0a2,2,0,0,0-.27-.24l0,0L66,.19l0,0L65.59.06h0a1.86,1.86,0,0,0-.33,0H1.86a1.86,1.86,0,0,0-.33,0h0L1.17.17l0,0L.83.36l0,0A1.55,1.55,0,0,0,.53.63h0l0,0L.29.94l0,0a1.77,1.77,0,0,0-.15.31v0A2,2,0,0,0,0,1.66v0A2.45,2.45,0,0,0,0,2V46.69A4.61,4.61,0,0,0,4.6,51.3H62.48a4.61,4.61,0,0,0,4.6-4.61V2A2.45,2.45,0,0,0,67.06,1.7ZM58,5.82,34.27,27.56a1.08,1.08,0,0,1-1.46,0L9.09,5.82A1.08,1.08,0,0,1,9.82,4H57.26A1.08,1.08,0,0,1,58,5.82Zm4.83,41.46L4.6,47.35a.66.66,0,0,1-.46-.19A.68.68,0,0,1,4,46.69V8.91a1.08,1.08,0,0,1,1.81-.79L32.21,32.36a2,2,0,0,0,2.66,0L61.32,8.12a1.08,1.08,0,0,1,1.81.79V46.69a.68.68,0,0,1-.19.47"/></svg>