<svg id="圖層_1" data-name="圖層 1" xmlns="http://www.w3.org/2000/svg" viewBox="0 0 64 64"><defs><style>.cls-1{fill:#fff;fill-rule:evenodd;}</style></defs><title>logo</title><path class="cls-1" d="M60.7,28.9a1.9,1.9,0,0,1,.1,2.7l-.5.5a2,2,0,0,1-2.6.1h0a1.86,1.86,0,0,0-3.1,1.4V57.4a1.9,1.9,0,0,1-.5,1.3L53,59.8a1.9,1.9,0,0,1-1.3.5H39.9a1.9,1.9,0,0,1-1.3-.5l-1.1-1.1a1.9,1.9,0,0,1-.5-1.3V44.5a1.9,1.9,0,0,0-1.9-1.9H30a1.9,1.9,0,0,0-1.9,1.9V57.3a1.9,1.9,0,0,1-.5,1.3l-1.1,1.1a1.9,1.9,0,0,1-1.3.5H13.4a1.9,1.9,0,0,1-1.3-.5l-1.1-1a1.9,1.9,0,0,1-.5-1.3V33.6a1.86,1.86,0,0,0-3.1-1.4h0a1.88,1.88,0,0,1-2.6-.1l-.5-.5a1.9,1.9,0,0,1,.1-2.7L30.7,4.8a.76.76,0,0,1,.4-.2h2.7c.1,0,.3.1.4.1ZM14.8,26.2V54.1A1.9,1.9,0,0,0,16.7,56h5.1a1.9,1.9,0,0,0,1.9-1.9V41.2a1.9,1.9,0,0,1,.5-1.3l1.1-1.1a1.9,1.9,0,0,1,1.3-.5H38.3a1.9,1.9,0,0,1,1.3.5l1.1,1.1a1.9,1.9,0,0,1,.5,1.3V54a1.9,1.9,0,0,0,1.9,1.9h5.1A1.9,1.9,0,0,0,50.1,54V26.2a2,2,0,0,0-.6-1.4L33.7,10.5a2,2,0,0,0-2.5,0L15.4,24.8A2.51,2.51,0,0,0,14.8,26.2Z"/></svg>