<?xml version="1.0" encoding="utf-8"?>
<!-- Generator: Adobe Illustrator 24.0.0, SVG Export Plug-In . SVG Version: 6.00 Build 0)  -->
<svg version="1.1" id="圖層_1" xmlns="http://www.w3.org/2000/svg" xmlns:xlink="http://www.w3.org/1999/xlink" x="0px" y="0px"
	 viewBox="0 0 64 64" style="enable-background:new 0 0 64 64;" xml:space="preserve">
<style type="text/css">
	.st0{fill-rule:evenodd;clip-rule:evenodd;fill:#FFC426;}
</style>
<g>
	<path class="st0" d="M60.7,28.9c0.8,0.7,0.8,1.9,0.1,2.7l-0.5,0.5c-0.7,0.7-1.8,0.7-2.6,0.1l0,0c-1.2-1.1-3.1-0.2-3.1,1.4v23.8
		c0,0.5-0.2,1-0.5,1.3L53,59.8c-0.3,0.3-0.8,0.5-1.3,0.5H39.9c-0.5,0-1-0.2-1.3-0.5l-1.1-1.1c-0.3-0.3-0.5-0.8-0.5-1.3V44.5
		c0-1-0.8-1.9-1.9-1.9H30c-1,0-1.9,0.8-1.9,1.9v12.8c0,0.5-0.2,1-0.5,1.3l-1.1,1.1c-0.3,0.3-0.8,0.5-1.3,0.5H13.4
		c-0.5,0-1-0.2-1.3-0.5l-1.1-1c-0.3-0.3-0.5-0.8-0.5-1.3V33.6c0-1.6-1.9-2.5-3.1-1.4l0,0c-0.7,0.7-1.9,0.6-2.6-0.1l-0.5-0.5
		c-0.7-0.7-0.7-2,0.1-2.7L30.7,4.8c0.1-0.1,0.3-0.2,0.4-0.2h2.7c0.1,0,0.3,0.1,0.4,0.1L60.7,28.9z M14.8,26.2v27.9
		c0,1,0.8,1.9,1.9,1.9h5.1c1,0,1.9-0.8,1.9-1.9V41.2c0-0.5,0.2-1,0.5-1.3l1.1-1.1c0.3-0.3,0.8-0.5,1.3-0.5h11.7c0.5,0,1,0.2,1.3,0.5
		l1.1,1.1c0.3,0.3,0.5,0.8,0.5,1.3V54c0,1,0.8,1.9,1.9,1.9h5.1c1,0,1.9-0.8,1.9-1.9V26.2c0-0.5-0.2-1-0.6-1.4L33.7,10.5
		c-0.7-0.6-1.8-0.6-2.5,0L15.4,24.8C15.1,25.2,14.8,25.7,14.8,26.2z"/>
</g>
</svg>
