<svg id="圖層_1" data-name="圖層 1" xmlns="http://www.w3.org/2000/svg" viewBox="0 0 16 16"><defs><style>.cls-1{fill:#2b66eb;fill-rule:evenodd;}</style></defs><title>preview</title><path class="cls-1" d="M2.17,2H13.83a.4.4,0,0,1,.29.12l.76.76a.4.4,0,0,1,.12.29v9.66a.4.4,0,0,1-.12.29l-.76.76a.4.4,0,0,1-.29.12H2.17a.4.4,0,0,1-.29-.12l-.76-.76A.4.4,0,0,1,1,12.83V3.17a.4.4,0,0,1,.12-.29l.76-.76A.4.4,0,0,1,2.17,2Zm.25,11H13.58a.42.42,0,0,0,.42-.42V3.42A.42.42,0,0,0,13.58,3H2.42A.42.42,0,0,0,2,3.42v9.16A.42.42,0,0,0,2.42,13ZM12.58,4H3.42A.42.42,0,0,0,3,4.42V6.58A.42.42,0,0,0,3.42,7h9.16A.42.42,0,0,0,13,6.58V4.42A.42.42,0,0,0,12.58,4ZM12,6H4V5h8ZM9.42,12h3.16a.42.42,0,0,0,.42-.42V8.42A.42.42,0,0,0,12.58,8H9.42A.42.42,0,0,0,9,8.42v3.16A.42.42,0,0,0,9.42,12Zm1-3h1.16a.42.42,0,0,1,.42.42v1.16a.42.42,0,0,1-.42.42H10.42a.42.42,0,0,1-.42-.42V9.42A.42.42,0,0,1,10.42,9ZM7,8H3V9H7ZM3,11H7v1H3Z"/></svg>