<svg id="圖層_1" data-name="圖層 1" xmlns="http://www.w3.org/2000/svg" viewBox="0 0 16 16"><defs><style>.cls-1{fill:#2b66eb;fill-rule:evenodd;}</style></defs><title>symbol-color</title><path class="cls-1" d="M8,1A7,7,0,0,0,1,8v.43c.09,1.51,1.91,1.79,3,.7a1.93,1.93,0,0,1,1.3-.47,1.87,1.87,0,0,1,1.26.55,1.85,1.85,0,0,1,.55,1.27,1.81,1.81,0,0,1-.47,1.29c-1.1,1.16-.79,3.07.8,3.2H8a7,7,0,0,0,7-7A7,7,0,0,0,8,1ZM8,14H7.48A.5.5,0,0,1,7,13.56,1.27,1.27,0,0,1,7,13a1.36,1.36,0,0,1,.31-.5,2.85,2.85,0,0,0,.81-2A2.79,2.79,0,0,0,6.39,7.86a2.86,2.86,0,0,0-2.2,0,2.91,2.91,0,0,0-.93.62,1,1,0,0,1-.41.29.9.9,0,0,1-.49.05.4.4,0,0,1-.22-.12A.43.43,0,0,1,2,8.41V8A6,6,0,0,1,13.92,6.87,6,6,0,0,1,11.37,13,6,6,0,0,1,8,14ZM9,4A1,1,0,1,1,8,3,1,1,0,0,1,9,4Zm3,7a1,1,0,1,1-1-1A1,1,0,0,1,12,11ZM5,6A1,1,0,1,0,4,5,1,1,0,0,0,5,6Zm7-1a1,1,0,1,1-1-1A1,1,0,0,1,12,5Zm1,3a1,1,0,1,1-1-1A1,1,0,0,1,13,8Z"/></svg>