<svg id="圖層_1" data-name="圖層 1" xmlns="http://www.w3.org/2000/svg" viewBox="0 0 34 27"><defs><style>.cls-1{fill:#fff;}</style></defs><title>Vector</title><path class="cls-1" d="M33.54,1.82a.31.31,0,0,0,0-.1.28.28,0,0,0,0-.09.28.28,0,0,0,0-.09s0-.06,0-.09a.29.29,0,0,0,0-.09l0-.09,0-.08,0-.09a.59.59,0,0,1,0-.08.56.56,0,0,1-.05-.08.59.59,0,0,1,0-.08l0-.07L33.14.72,33.08.64l0,0,0,0L33,.51,32.89.45,32.82.39,32.74.33l-.07,0-.08,0-.08,0-.08,0-.09,0-.08,0-.09,0-.09,0L32,0,31.9,0H1.64L1.55,0l-.09,0-.09,0-.09,0L1.2.12l-.09,0L1,.2,1,.24.87.29.8.33.72.39.65.45.59.51.52.58l0,0,0,0L.4.72.34.79.29.86a.59.59,0,0,1,0,.08A.56.56,0,0,1,.2,1a.59.59,0,0,1,0,.08l0,.09,0,.08,0,.09a.29.29,0,0,0,0,.09s0,.06,0,.09a.28.28,0,0,0,0,.09.28.28,0,0,0,0,.09.31.31,0,0,0,0,.1V23a3.15,3.15,0,0,0,.91,2.2,3.11,3.11,0,0,0,2.2.91H30.43a3.11,3.11,0,0,0,2.2-.91,3.15,3.15,0,0,0,.91-2.2V1.82ZM26,4.55l-8.9,8.16a.49.49,0,0,1-.64,0L7.55,4.55a.47.47,0,0,1,.32-.82h17.8A.47.47,0,0,1,26,4.55ZM3.73,21.88V7.18a.47.47,0,0,1,.79-.35l11,10.07a1.86,1.86,0,0,0,2.52,0L29,6.83a.47.47,0,0,1,.79.35v14.7a.47.47,0,0,1-.47.48H4.2A.47.47,0,0,1,3.73,21.88Z"/></svg>